<svg id="Layer_1" data-name="Layer 1" xmlns="http://www.w3.org/2000/svg" viewBox="0 0 401.45 106.63"><defs><style>.cls-1{fill:#b61b20;}</style></defs><path class="cls-1" d="M120.7,135.12c-2.27,1.09-4.43,2.58-6.82,3.2a25.85,25.85,0,0,1-13.93.17,22.52,22.52,0,0,1-5.93-3,46.57,46.57,0,0,1-11.87-12.33c-3.91-5.58-7.76-11.22-11.28-17A41.3,41.3,0,0,0,56.33,91.6c-1.64-1-4-1-6-1a78.41,78.41,0,0,0-20.7,3,1.77,1.77,0,0,0-1.52,2s0,0,0,.06c0,10.27,0,20.53.06,30.79a3.74,3.74,0,0,0,.9,2.25,22.47,22.47,0,0,0,14.76,7.7H6.94a41.5,41.5,0,0,0,6.45-2,39.53,39.53,0,0,0,6.15-4c1.92-1.39,2.62-3.21,2.61-5.73q-.16-40.57,0-81.17a4.76,4.76,0,0,0-1.48-3.63A23.57,23.57,0,0,0,6.32,32.73H50.17c13.82,0,26.5,11.14,28.32,24.8C79.94,68.4,75.69,77,67.9,84.14c-1.47,1.35-3.09,2.53-4.72,3.84a2.68,2.68,0,0,0,.46.69c6.52,4.85,10.75,11.51,14.61,18.46a60.12,60.12,0,0,0,17.69,20.32,36.26,36.26,0,0,0,22.71,7.09h1.82ZM28.18,62.32V81.76c0,1.66.48,2.44,2.23,3A46.4,46.4,0,0,0,50.67,86c3.87-.57,7.74-1.41,10.91-3.86C70.14,75.48,73.44,66.46,72.08,56c-1.3-10.07-8-15.84-17.27-18.92A43.13,43.13,0,0,0,40,35.31c-4.46.11-8.16,1.64-10.91,5.18a4.31,4.31,0,0,0-.9,2.43c-.05,6.48,0,12.95,0,19.43Z" transform="translate(-6.32 -32.73)"/><path class="cls-1" d="M349.49,97.92c.09-.06.17-.16.27-.18,4.08-.82,4.62-1.38,4.83-5.61.17-3.5.31-7,.32-10.49q.06-16.24,0-32.5c0-1.6-.12-3.21-.25-4.81-.2-2.65-1-3.46-3.64-3.93-.93-.16-1.87-.23-2.81-.34l-.07-.43a5.75,5.75,0,0,1,1.41-.37c10.08.09,20.18,0,30.26.37,12.86.54,22.52,7.41,26.2,18.31a32,32,0,0,1-1.36,24.27c-4.69,10.24-13,15.81-24,16.68-6.35.51-12.81-.23-19.22-.34-3.37-.06-6.75,0-10.13,0a14.23,14.23,0,0,1-1.84-.23Zm19.66-56.16c-1.77.09-3.54.17-5.31.29s-2.46,1-2.44,2.79c.07,7,0,14,0,21,.05,8.07.12,16.14.33,24.21.1,4,1.16,5.11,5,5.94a35.59,35.59,0,0,0,14.17.34c8.71-1.64,16.61-6.56,18.76-17.36a40.26,40.26,0,0,0,.92-10.21c-.69-11.19-6-19.53-16.36-24.25C379.5,42.3,374.35,41.83,369.15,41.76Z" transform="translate(-6.32 -32.73)"/><path class="cls-1" d="M117.06,99.47C103.35,99.3,93.59,91.74,90.77,79c-3.28-14.84,7.52-29.64,22.68-31.19a35.3,35.3,0,0,1,14.76,1.39c11.17,3.65,17.6,13.41,16.6,25.12-1.1,12.87-9.27,22-22,24.49C121,99.12,119,99.25,117.06,99.47ZM137.64,75.8c-.12-8-1.5-14.27-6-19.37-5.3-5.92-12-7.73-19.65-6C104.59,52,100.07,56.74,98.29,64a31.37,31.37,0,0,0,1.6,20.18,19.75,19.75,0,0,0,11.58,11.31c11.21,4.18,22.14-1.23,25.11-12.56a56.55,56.55,0,0,0,1.06-7.1Z" transform="translate(-6.32 -32.73)"/><path class="cls-1" d="M199.84,61.21q-.26-.93-.42-1.89a8,8,0,0,0-4.19-6.14,23.2,23.2,0,0,0-9.81-2.86c-5.53-.45-11-.35-16,2.55s-7.25,7.33-8.23,12.66a27.13,27.13,0,0,0,2.89,18.29,24.38,24.38,0,0,0,27.4,11.84c2.52-.68,3.1-1.41,3.1-4V80c0-4.35-.57-4.93-4.82-5.4a5,5,0,0,1-1-.24c.87-.85,15.67-1,17.39,0-.92.13-1.49.24-2.06.3a2.69,2.69,0,0,0-2.77,2.53c-.19,2.39-.3,4.8-.35,7.19-.06,2.93,0,5.85,0,8.77s-.11,3.07-2.89,4.07a39.22,39.22,0,0,1-15.57,2.08c-6.57-.37-12.86-1.78-18.25-5.78C155.47,87,152.77,78,154.82,67.62s8.53-16.61,18.7-19.07c7.15-1.74,14.33-1.17,21.5.07,1.64.28,3.29.45,4.95.59.84.07,1.23.35,1.18,1.25-.18,3.26-.3,6.52-.48,9.78a3,3,0,0,1-.36,1Z" transform="translate(-6.32 -32.73)"/><path class="cls-1" d="M247.57,48.44H262.9L263,49c-.57.07-1.13.16-1.7.22a2.79,2.79,0,0,0-2.88,2.63,25.08,25.08,0,0,0-.21,2.73c0,7.28.08,14.56-.11,21.84a44.91,44.91,0,0,1-1.29,9.66,16.49,16.49,0,0,1-15.11,13,37.81,37.81,0,0,1-9.74-.18c-8.81-1.47-14.11-7.31-14.59-16.35-.43-8.06-.28-16.15-.41-24.23,0-1.88-.12-3.77-.28-5.66-.19-2.26-.79-2.86-3-3.25-.85-.14-1.71-.25-2.56-.37v-.51h17.37l.06.48c-.68.11-1.36.26-2,.32A2.76,2.76,0,0,0,223.72,52v.16c-.09,1.54-.21,3.09-.2,4.63q0,12.28.23,24.58a22.18,22.18,0,0,0,.82,5.24,13.29,13.29,0,0,0,12.64,10.06c9.2.49,15.22-4.32,15.74-13.61.55-9.88.36-19.81.33-29.71,0-3.18-.91-3.85-4-4.15L247.65,49Z" transform="translate(-6.32 -32.73)"/><path class="cls-1" d="M271.39,48.24c9.66.16,19.33.73,29.08-.14-.3,2.89-.61,5.88-.91,8.88h-.49c-.18-.73-.34-1.47-.52-2.2-.58-2.44-1.23-3.12-3.71-3.28-3.31-.21-6.64-.22-10-.36-1,0-1.29.36-1.29,1.31V69.13c0,1,.32,1.44,1.39,1.39,3.61-.15,7.23-.12,10.83-.4,1.2-.09,2.34-.87,3.64-1.39l-1,9.78h-.53l-.24-1.69c-.33-2.26-1.14-3.16-3.43-3.33-3.14-.23-6.3-.26-9.45-.41-1,0-1.26.4-1.26,1.33,0,5.39,0,10.78.05,16.16.06,3.6,1.1,4.81,4.64,5.11a64.91,64.91,0,0,0,7.89,0c2.75-.1,4.24-1.69,4.78-4.32a17.28,17.28,0,0,1,.71-2.1l.62.14c-.16,1.66-.26,3.32-.48,5-.59,4.41-.61,4.43-5.11,4.34-5-.09-10-.25-15-.32-2.12,0-4.24.12-6.36.17h-3v-.48a2.61,2.61,0,0,1,.64-.39c3-.75,3.63-1.19,3.83-4.19.3-4.52.36-9,.38-13.57,0-8.43,0-16.85-.06-25.28,0-4.38-.6-5-5-5.54a4.25,4.25,0,0,1-.86-.33Z" transform="translate(-6.32 -32.73)"/><path class="cls-1" d="M335.15,98.34H315.73v-.45c.41-.08.82-.18,1.24-.24,2.45-.31,3.28-.9,3.56-3.38a104.1,104.1,0,0,0,.65-10.44c.08-11.46,0-22.92,0-34.38,0-1.55-.09-3.09-.22-4.63-.28-3.32-1.1-4.15-4.39-4.59a1.76,1.76,0,0,1-1.19-.58,5.07,5.07,0,0,1,1.38-.39h15.12a6.6,6.6,0,0,1,1.32.28V40c-.74.16-1.48.36-2.23.46a3.17,3.17,0,0,0-3,3.06,37.7,37.7,0,0,0-.31,4.11V86.3a59.25,59.25,0,0,0,.55,7.87c.32,2.33,1.18,2.94,3.54,3.23,1.11.13,2.21.29,3.32.44Z" transform="translate(-6.32 -32.73)"/></svg>